<?xml version="1.0" encoding="UTF-8"?>
<!DOCTYPE svg PUBLIC "-//W3C//DTD SVG 1.1//EN" "http://www.w3.org/Graphics/SVG/1.1/DTD/svg11.dtd">
<!-- Creator: CorelDRAW 2023, XmlUnusedNamespaceDeclaration -->
<svg xmlns="http://www.w3.org/2000/svg" xml:space="preserve" width="14.111mm" height="14.111mm" version="1.1" style="shape-rendering:geometricPrecision; text-rendering:geometricPrecision; image-rendering:optimizeQuality; fill-rule:evenodd; clip-rule:evenodd"
viewBox="0 0 1411.1 1411.1"
 xmlns:xlink="http://www.w3.org/1999/xlink"
 xmlns:xodm="http://www.corel.com/coreldraw/odm/2003">
 <defs>
  <style type="text/css">
   <![CDATA[
    .fil0 {fill:#FF9800;fill-rule:nonzero}
   ]]>
  </style>
 </defs>
 <g id="Calque_x0020_1">
  <metadata id="CorelCorpID_0Corel-Layer"/>
  <g id="_105553199295104">
   <path class="fil0" d="M533.56 403.37l-69.67 -120.72c-75.92,43.71 -135.79,105.38 -176.92,176.85l120.79 69.71c30.13,-52.18 73.62,-95.67 125.8,-125.84z"/>
   <path class="fil0" d="M222.41 701.07c0.04,73.55 16.94,148.24 52.57,218.26 3.98,7.83 8.15,15.53 12.52,23.04l120.72 -69.71c-29.31,-50.45 -46.14,-109.04 -46.25,-171.59l-139.56 0z"/>
   <path class="fil0" d="M534.01 997.98l-69.71 120.76c73.06,41.98 156.35,64.38 241.13,64.38l0 -139.56c-0.14,0 -0.29,0 -0.46,0 -62.23,0 -120.62,-16.58 -170.96,-45.58z"/>
   <path class="fil0" d="M1048 701.07l139.55 0c0.15,-73.87 -16.75,-148.94 -52.56,-219.32 -3.77,-7.45 -7.73,-14.71 -11.85,-21.84l-120.72 69.67c28.99,50.35 45.58,108.73 45.58,170.96 0,0.18 0,0.35 0,0.53z"/>
   <path class="fil0" d="M946.82 282.97c-73.1,-42.22 -156.5,-64.84 -241.38,-64.98l0 139.53c62.55,0.1 121.18,16.93 171.63,46.25l69.75 -120.8z"/>
   <path class="fil0" d="M876.62 997.58l69.71 120.72c75.64,-43.6 135.33,-105.09 176.39,-176.32l-120.75 -69.7c-30.1,51.92 -73.42,95.21 -125.35,125.3z"/>
  </g>
  <g id="_105553199289344">
   <path class="fil0" d="M643.75 174.03c-74.19,8.64 -143.02,32.17 -203.8,67.31l50.97 88.33c41.49,-23.95 87.7,-41.27 137.52,-50.34 25.78,-4.69 51.47,-6.95 76.76,-6.98l0 -101.92c-20.28,0.03 -40.82,1.2 -61.45,3.6zm-397.9 261.58c-45.51,78.67 -71.16,169.58 -70.98,265.18l101.92 0c-0.14,-76.8 20.49,-150.35 57.39,-214.2l-88.33 -50.98zm88.44 479.32l-88.3 51.01c46.85,80.93 114.23,147.64 194.2,193.85l51.02 -88.33c-64.42,-37.15 -118.96,-90.88 -156.92,-156.53zm584.87 156.42c-41.52,23.99 -87.77,41.35 -137.62,50.41 -25.64,4.66 -51.19,6.92 -76.34,6.95l0 101.96c20.14,-0.04 40.54,-1.24 61.03,-3.6 74.23,-8.65 143.09,-32.21 203.91,-67.38l-50.98 -88.34zm214 -370.56c0.03,76.73 -20.61,150.18 -57.47,213.89l88.33 51.01c45.48,-78.59 71.16,-169.4 71.09,-264.9l-101.95 0zm-162.85 -459.17l-51.01 88.33c64.38,37.26 118.82,91.06 156.71,156.78l88.3 -51.01c-46.75,-81 -114.06,-147.78 -194,-194.1z"/>
  </g>
  <g id="_105553196817344">
   <path class="fil0" d="M583 856.02c-35.45,-25.72 -60.18,-60.75 -73.2,-99.31l-35.24 11.93c14.6,43.28 41.7,82.86 80.5,112.96 30.87,23.88 65.73,39.08 101.6,46l7.31 -36.51c-28.4,-5.44 -56.03,-17.01 -80.97,-35.07z"/>
   <path class="fil0" d="M824.57 86.91l-7.41 37.04c103.05,20.78 201.68,69.82 283.56,147.5 70.8,67.17 120.9,147.92 150.07,234.38l35.81 -12.13c-30.83,-91.26 -83.54,-176.6 -157.94,-247.83 -87.59,-83.78 -193.43,-136.66 -304.09,-158.96z"/>
   <path class="fil0" d="M743.53 492.64l7.3 -36.48c-81.95,-16.86 -169.72,9.84 -228.17,75.64l27.97 24.55c49.18,-55.28 123.4,-78.11 192.9,-63.71z"/>
   <path class="fil0" d="M866.67 810.78c-3.45,4.76 -7.05,9.28 -10.83,13.65l27.98 24.56c2.89,-3.32 5.68,-6.74 8.43,-10.27 51.19,-66.15 62.51,-150.53 37.64,-224.23l-35.28 11.93c20.32,60.18 12.21,129.01 -27.94,184.36z"/>
   <path class="fil0" d="M588.89 628.2c4.8,-8.6 10.48,-16.44 16.8,-23.49l-27.34 -23.99c-5.4,6.03 -10.45,12.56 -15.03,19.54 -29.21,44.49 -34.33,97.79 -18.52,144.61l34.43 -11.68c-11.33,-33.55 -9,-71.61 9.66,-104.99z"/>
   <path class="fil0" d="M736.3 528.84l-7.13 35.67c12.46,2.64 24.73,7.2 36.41,13.72 29.21,16.34 49.67,42.3 59.62,71.69l34.43 -11.65c-11.43,-33.93 -33.9,-64.41 -66.11,-85.61 -17.99,-11.79 -37.4,-19.65 -57.22,-23.82z"/>
   <path class="fil0" d="M678.31 819.2l-7.13 35.67c57.26,10.87 117.65,-9.07 156.95,-54.79l-27.34 -23.99c-30.3,35.42 -77.36,51.58 -122.48,43.11z"/>
   <path class="fil0" d="M1045.64 1006.29c2.57,-2.79 5.08,-5.65 7.58,-8.47l-28.33 -24.91c-1.59,1.84 -3.21,3.64 -4.83,5.44 -104.39,115.71 -257.6,161.18 -400.19,133.38l-7.38 36.97c153.96,30.09 319.41,-18.31 433.15,-142.41z"/>
   <path class="fil0" d="M1122.33 1090.08c-141.64,149.33 -343.96,206.55 -532.02,169.68l-7.41 37.08c199.46,39.12 414.06,-21.06 565.01,-178.82 6.42,-6.74 12.7,-13.62 18.77,-20.57l-28.37 -24.91c-5.18,5.93 -10.51,11.79 -15.98,17.54z"/>
   <path class="fil0" d="M381.6 407.88l-28.33 -24.88c-114.3,129.16 -144.07,304.73 -92.36,457.98l35.74 -12.1c-47.52,-140.72 -20.29,-302.12 84.95,-421z"/>
   <path class="fil0" d="M989.02 373.71c56.37,50.87 96.09,113.35 118.78,180.52l35.7 -12.07c-24.31,-72 -66.57,-139.06 -126.54,-194.03 -64.77,-59.33 -141.75,-96.91 -221.97,-113.13l-7.37 36.97c72.63,14.71 142.38,48.5 201.4,101.74z"/>
   <path class="fil0" d="M649.34 964.26l-7.34 36.79c107.03,20.71 221.75,-14.82 298.06,-102.62l-28.15 -24.77c-66.99,77.23 -168.07,108.83 -262.57,90.6z"/>
   <path class="fil0" d="M877.29 475.98c42.27,34.32 71.79,78.49 88.02,126.5l35.53 -12.03c-17.82,-52.81 -49.85,-101.53 -95.61,-140.05 -41.69,-35.1 -89.85,-57.54 -139.73,-67.7l-7.34 36.76c42.33,8.68 83.26,27.38 119.13,56.52z"/>
   <path class="fil0" d="M268.19 308.25l-28.4 -24.94c-150.6,170.36 -190.57,402.84 -121.92,606.11l35.77 -12.13c-64.42,-190.75 -26.99,-408.98 114.55,-569.04z"/>
   <path class="fil0" d="M403.6 792.67l35.52 -12.03c-29.45,-87.31 -14.85,-187.36 47.52,-264.16 2.58,-3.18 5.26,-6.32 7.94,-9.35l-28.19 -24.77c-1.8,2.05 -3.56,4.1 -5.33,6.18 -73.62,87.45 -91.54,203.2 -57.46,304.13z"/>
  </g>
 </g>
</svg>
