<?xml version="1.0" encoding="UTF-8"?>
<!DOCTYPE svg PUBLIC "-//W3C//DTD SVG 1.1//EN" "http://www.w3.org/Graphics/SVG/1.1/DTD/svg11.dtd">
<!-- Creator: CorelDRAW 2023, XmlUnusedNamespaceDeclaration -->
<svg xmlns="http://www.w3.org/2000/svg" xml:space="preserve" width="22.0132mm" height="11.0066mm" version="1.1" style="shape-rendering:geometricPrecision; text-rendering:geometricPrecision; image-rendering:optimizeQuality; fill-rule:evenodd; clip-rule:evenodd"
viewBox="0 0 2201.32 1100.66"
 xmlns:xlink="http://www.w3.org/1999/xlink"
 xmlns:xodm="http://www.corel.com/coreldraw/odm/2003">
 <defs>
  <style type="text/css">
   <![CDATA[
    .fil0 {fill:#FF8D00}
   ]]>
  </style>
 </defs>
 <g id="Plan_x0020_1">
  <metadata id="CorelCorpID_0Corel-Layer"/>
  <polygon class="fil0" points="693.52,610.73 721.73,645.22 149.55,643.83 197.98,609.52 "/>
  <polygon class="fil0" points="693.52,610.73 721.73,645.22 698.74,610.74 "/>
  <polygon class="fil0" points="1389.89,293.36 1429.13,345.26 1434.72,340.32 1890.42,341.42 1814.63,284.91 1400.36,283.91 1392.9,290.64 "/>
  <polygon class="fil0" points="721.9,781.09 741.49,793.71 123.98,792.22 124.01,779.65 "/>
  <polygon class="fil0" points="1447.58,380.78 1467.12,405.64 1975.12,406.87 2039.96,377.71 1452.58,376.28 "/>
  <polygon class="fil0" points="663.61,505 679.37,519.55 678.48,520.56 98.49,519.16 93.33,508.19 659.51,509.55 "/>
  <polygon class="fil0" points="1461.97,254.96 1474.58,265.93 2092.94,267.42 2068.83,256.43 "/>
 </g>
</svg>
